<svg id="Layer_1" data-name="Layer 1" xmlns="http://www.w3.org/2000/svg" viewBox="0 0 294.76 212.72"><defs><style>.cls-1{fill:#f3f3f3;stroke:#cbcbca;stroke-miterlimit:10;stroke-width:3px;}.cls-2{fill:#3a6fb6;}.cls-3{fill:#fff;}</style></defs><title>amex</title><path class="cls-1" d="M297.85,320.14H553.14a18.25,18.25,0,0,1,18.24,18.25V511.62a18.24,18.24,0,0,1-18.24,18.24H297.85a18.24,18.24,0,0,1-18.23-18.24V338.39a18.24,18.24,0,0,1,18.23-18.25Z" transform="translate(-278.12 -318.64)"/><path class="cls-2" d="M546,493.84a14.23,14.23,0,0,1-14.24,14.24H319.27A14.23,14.23,0,0,1,305,493.84V356.16a14.23,14.23,0,0,1,14.24-14.24H531.73A14.23,14.23,0,0,1,546,356.16V493.84Z" transform="translate(-278.12 -318.64)"/><polygon class="cls-3" points="62.01 89.77 69.21 89.77 65.61 80.61 62.01 89.77"/><polygon class="cls-3" points="100.3 120.53 100.3 124.78 112.4 124.78 112.4 129.37 100.3 129.37 100.3 134.28 113.71 134.28 119.93 127.4 114.04 120.53 100.3 120.53"/><polygon class="cls-3" points="194.86 80.61 190.94 89.77 198.46 89.77 194.86 80.61"/><polygon class="cls-3" points="135.31 136.89 135.31 118.24 126.8 127.4 135.31 136.89"/><path class="cls-3" d="M429.46,442.11a3.3,3.3,0,0,0-3.6-2.94H419v5.89h7.2C428.15,445.06,429.46,444.08,429.46,442.11Z" transform="translate(-278.12 -318.64)"/><path class="cls-3" d="M452.37,444.41a2.58,2.58,0,0,0,1-2.3,1.83,1.83,0,0,0-1-2.29,6.54,6.54,0,0,0-2.62-.32H443.2v5.23h6.55A6.54,6.54,0,0,0,452.37,444.41Z" transform="translate(-278.12 -318.64)"/><path class="cls-3" d="M499.49,390.74v3.93l-2-3.93H482.15v3.93l-2-3.93H459.24a19.87,19.87,0,0,0-9.16,2v-2H435.35v2a9.41,9.41,0,0,0-6.21-2H376.45l-3.6,8.18-3.6-8.18H352.56v3.93l-1.63-3.93h-14.4L330,406.12l-7.52,16.69-.14.32h17l.12-.32,2-4.91h4.25l2,5.23h19v-3.92l1.64,3.92h9.49l1.64-3.92v3.92h45.48v-8.5h.66c.65,0,.65,0,.65,1v7.2h23.56v-2a19.47,19.47,0,0,0,8.83,2h9.82l2-5.24h4.57l2,5.24h19V417.9l2.94,4.91h15.38V390.74ZM388.56,418.23h-5.24v-18L383,401h0l-7.62,17.26h-4.82l-7.85-18v18H351.58l-2.29-4.91H338.17l-2.3,4.91h-5.75l9.68-22.91H348l9.16,21.92V395.32h8.67l.16.33h0l4.13,9,3,6.74.11-.34,6.54-15.71h8.84v22.91Zm22.58-18H398.38v4.25h12.43v4.58H398.38v4.59h12.76v4.9H392.81V395.32h18.33v4.91Zm23.34,8.44,0,0c.12.13.23.26.32.38a6.41,6.41,0,0,1,1.16,3.84v.17c0,.18,0,.37,0,.57v4.58H431.1v-2.62c0-1.31,0-3.27-1-4.58a2.94,2.94,0,0,0-1-.66c-.49-.32-1.42-.32-3-.32H420.3v8.18h-5.56V395.32h12.43c2.95,0,4.91,0,6.55,1a5.53,5.53,0,0,1,2.6,5.09,6.51,6.51,0,0,1-3.91,6A4.38,4.38,0,0,1,434.48,408.67Zm11,9.56h-5.57V395.32h5.57Zm63.81,0H502.1l-10.47-17.35v14.4l0,0v3H480.51l-2-4.91H467.09l-2,5.23h-6.22c-2.62,0-5.89-.65-7.85-2.61s-2.95-4.58-2.95-8.84c0-3.27.66-6.54,2.95-9.16,1.63-2,4.58-2.62,8.18-2.62h5.23v4.91h-5.23a6,6,0,0,0-4.26,1.31,7.67,7.67,0,0,0-1.63,5.23c0,2.62.33,4.26,1.63,5.57a5.25,5.25,0,0,0,3.93,1.31h2.29l7.53-18h8.18l9.16,21.92V395.65h8.18l9.49,16v-16h5.56v22.58Z" transform="translate(-278.12 -318.64)"/><path class="cls-3" d="M429.81,404.86a1.87,1.87,0,0,0,.26-.35,3.59,3.59,0,0,0,.45-2.47c0-.1,0-.2,0-.3s0,0,0-.07h0a1.78,1.78,0,0,0-1-1.11,6.33,6.33,0,0,0-2.62-.33H420.3v5.24h6.54a6.33,6.33,0,0,0,2.62-.33,1.05,1.05,0,0,0,.27-.2h0Z" transform="translate(-278.12 -318.64)"/><path class="cls-3" d="M528.61,451a12.47,12.47,0,0,0-1.64-6.22V430h0v-1H511.2c-2,0-4.51,2-4.51,2v-2H491.63c-2.29,0-5.23.65-6.54,2v-2H458.26v2c-2-1.64-5.57-2-7.2-2H433.39v2c-1.64-1.64-5.57-2-7.53-2H406.23l-4.58,4.91L397.39,429H367.94v33.06h28.8l4.73-4.74,4.1,4.74H423.9v-7.53h1.64c2.28,0,5.23,0,7.52-1v8.83h14.73v-8.51h.65c1,0,1,0,1,1v7.52h44.5c2.95,0,5.89-.65,7.53-2v2h14.07c2.94,0,5.89-.32,7.85-1.63a11,11,0,0,0,5.2-8.83c0-.11,0-.22,0-.34h0C528.6,451.37,528.61,451.16,528.61,451Zm-103.07-2H419v8.5H408.23l-6.26-7.2,0,0-.3-.35-7.2,7.52H373.51v-22.9h21.27l5.81,6.36,1.22,1.34.16-.18,6.88-7.52h17.34c3.36,0,7.13.83,8.56,4.25a9.4,9.4,0,0,1,.27,2.29C435,447.68,430.44,449,425.54,449Zm32.72-.33a7.45,7.45,0,0,1,1,4.25v4.58h-5.56v-2.94c0-1.31,0-3.6-1-4.58-.65-1-2-1-3.92-1h-5.89v8.5h-5.56V434.26h12.43c2.62,0,4.91,0,6.55,1a5.8,5.8,0,0,1,2.94,5.24,6.52,6.52,0,0,1-3.93,6.22C457,447.35,457.93,448,458.26,448.66Zm22.58-9.49H468.07v4.25h12.44V448H468.07v4.59h12.77v4.9H462.51V434.26h18.33Zm13.74,18.32H484.11v-4.9h10.47a2.75,2.75,0,0,0,2.29-.66,2.38,2.38,0,0,0,0-3.27,2.75,2.75,0,0,0-2-.65c-5.24-.33-11.46,0-11.46-7.2,0-3.28,2-6.88,7.86-6.88H502.1v5.57H492a4.94,4.94,0,0,0-2.29.32c-.65.33-.65,1-.65,1.64,0,1,.65,1.31,1.3,1.64a4.26,4.26,0,0,0,2,.32h2.94c2.95,0,4.91.66,6.22,2a6.78,6.78,0,0,1,1.64,4.91C503.09,455.2,500.14,457.49,494.58,457.49Zm28.14-2.29c-1.31,1.31-3.6,2.29-6.87,2.29H505.38v-4.9h10.47a2.74,2.74,0,0,0,2.29-.66,2.38,2.38,0,0,0,0-3.27,2.75,2.75,0,0,0-2-.65c-5.24-.33-11.46,0-11.46-7.2,0-3.11,1.78-5.92,6.17-6.76a12.68,12.68,0,0,1,1.69-.12h10.8v5.57H513.23a5,5,0,0,0-2.29.32,2.51,2.51,0,0,0-.66,1.64c0,1,.33,1.31,1.32,1.64a4.2,4.2,0,0,0,2,.32h2.94a10.15,10.15,0,0,1,3.5.53,7,7,0,0,1,4.58,5.17,7.21,7.21,0,0,1,.1,1.18A6.64,6.64,0,0,1,522.72,455.2Z" transform="translate(-278.12 -318.64)"/></svg>