<svg id="Capa_1" data-name="Capa 1" xmlns="http://www.w3.org/2000/svg" viewBox="0 0 294.73 212.71"><defs><style>.cls-1{fill:#f3f3f3;stroke:#cbcbca;stroke-miterlimit:10;stroke-width:3px;}.cls-2{fill:#231f20;}.cls-3{fill:#006ac9;}.cls-4{fill:#004a97;}.cls-5{fill:#023563;}</style></defs><title>dinersclub</title><path class="cls-1" d="M19.63,1.5H274.88a18.24,18.24,0,0,1,18.24,18.24V193a18.24,18.24,0,0,1-18.24,18.23H19.63A18.24,18.24,0,0,1,1.39,193V19.74A18.24,18.24,0,0,1,19.63,1.5Z" transform="translate(0.11 0)"/><path class="cls-2" d="M41.76,149c0,3.71,2.6,4.08,5.19,4.08,10.4,0,14.11-7.79,14.11-15.21,0-9.28-5.94-15.59-15.22-15.59-1.86,0-3,0-3.71.37V149Zm-4.83-23c0-4.45-2.22-4.07-4.45-4.07v-1.12h14.1c12.62,0,19.3,8.54,19.3,17.08,0,4.82-3,17.07-20,17.07H32.1v-1.13c3-.37,4.45-.37,4.45-3.72V126Z" transform="translate(0.11 0)"/><path class="cls-2" d="M73.31,124.93a2.5,2.5,0,0,1-2.23-2.61,2.23,2.23,0,0,1,4.45-.29,1.4,1.4,0,0,1,0,.29,2.48,2.48,0,0,1-2.22,2.61M68.1,153.5h1.11c1.49,0,2.23,0,2.23-1.49V138.65c0-2.23-.74-2.6-2.6-3.34v-.74c2.23-.75,4.83-1.48,5.2-1.85a1.1,1.1,0,0,1,.74-.37c.37,0,.37.37.37.74v18.56c0,1.48,1.11,1.48,2.6,1.48h.74v1.12H68.1Z" transform="translate(0.11 0)"/><path class="cls-2" d="M83,139c0-1.86-.38-2.24-3-3.34V135c2.22-.74,4.08-1.49,6.31-2.23a.35.35,0,0,1,.37.34v3.37c2.6-1.86,5.19-3.71,8.53-3.71,4.09,0,5.57,3,5.57,6.68V152c0,1.49,1.11,1.49,2.6,1.49h.76v1.07H93.72v-1.1h.74c1.49,0,2.23,0,2.23-1.49V139.4c0-2.61-1.86-4.08-4.46-4.08a11.58,11.58,0,0,0-5.56,2.23V152c0,1.49,1.11,1.49,2.6,1.49H90v1.06H79.62v-1.1h1.11c1.48,0,2.23,0,2.23-1.49V139Z" transform="translate(0.11 0)"/><path class="cls-2" d="M116.36,139.76c1.11,0,1.48-.73,1.48-1.1,0-2.6-1.48-4.45-4.08-4.45-3,0-5.2,2.22-5.57,5.55Zm-8.54,1.49v3c.37,4.46,3.34,8.53,7.05,8.53,2.6,0,4.83-1.48,6.68-3.34l.75.74c-2.23,3-5.2,5.57-8.91,5.57-7.79,0-9.28-7.42-9.28-10.76,0-9.65,6.31-12.25,9.65-12.25,4.08,0,8.17,2.6,8.17,7.8v.74H107.82Z" transform="translate(0.11 0)"/><path class="cls-2" d="M123,153.5h1.48c1.49,0,2.23,0,2.23-1.49V138.28c0-1.49-1.85-1.85-2.6-2.23v-.74c3.71-1.49,5.57-2.6,5.94-2.6s.37,0,.37.74v4.46h0c1.12-1.86,3.34-4.83,6.31-4.83a2.52,2.52,0,0,1,2.6,2.44.43.43,0,0,1,0,.16c0,1.48-.74,2.6-2.23,2.6s-1.48-1.12-3.34-1.12a4.32,4.32,0,0,0-3.71,4.09v11.5c0,1.49,1.11,1.49,2.23,1.49h2.6v1.11H122.3V153.5Z" transform="translate(0.11 0)"/><path class="cls-2" d="M142,147.93c.74,3.34,2.6,5.94,6.31,5.94,3,0,4.08-1.86,4.08-3.34,0-5.57-10.76-3.72-10.76-11.88,0-2.6,2.22-6.31,7.42-6.31a11.65,11.65,0,0,1,5.57,1.48l.37,4.83h-1.12c-.37-3-2.22-4.83-5.19-4.83-1.86,0-3.71,1.12-3.71,3.34,0,5.58,11.13,4.09,11.13,11.52,0,3.33-2.6,6.67-8.53,6.67a17.25,17.25,0,0,1-5.94-1.48l-.37-5.57Z" transform="translate(0.11 0)"/><path class="cls-2" d="M199.87,129.37h-1.12c-.74-5.57-4.82-7.79-10.39-7.79s-13.73,3.71-13.73,15.58c0,9.65,7.05,16.71,14.47,16.71a9.61,9.61,0,0,0,9.65-8.54l1.12.37-1.12,7.05a30.28,30.28,0,0,1-10.76,2.6c-11.51,0-18.56-7.42-18.56-18.19,0-10,8.91-17.07,18.56-17.07a30.85,30.85,0,0,1,11.51,2.6Z" transform="translate(0.11 0)"/><path class="cls-2" d="M201.72,153.5h.75c1.48,0,2.22,0,2.22-1.49V124.93c0-3.34-.74-3.34-2.6-3.71v-.75a37.28,37.28,0,0,0,5.2-2.22,1.32,1.32,0,0,1,1.11-.37c.37,0,.37.37.37.74v33.76c0,1.49,1.12,1.49,2.6,1.49h.73V155H201.7V153.5Z" transform="translate(0.11 0)"/><path class="cls-2" d="M232.9,152c0,.74.37.74,1.48.74h1.86v1.12c-2.23.37-5.94,1.11-7.05,1.48h-.37v-4.07c-3,2.23-5.2,4.07-8.54,4.07-2.6,0-5.2-1.85-5.2-5.94V136.79c0-1.1-.37-2.58-3-2.58v-.75c1.85,0,5.56-.37,6.3-.37.38,0,.38.37.38,1.48v12.62c0,1.49,0,5.56,4.08,5.56,1.48,0,3.71-1.1,5.94-3v-13c0-1.1-2.23-1.48-4.09-1.85v-.74c4.46-.38,7.06-.75,7.43-.75s.37.37.37.75V152Z" transform="translate(0.11 0)"/><path class="cls-2" d="M242.55,149a5.25,5.25,0,0,0,5.2,4.83c5.19,0,7.42-5.2,7.42-9.28,0-5.2-4.08-9.65-7.8-9.65a6.5,6.5,0,0,0-4.45,2.22V149Zm0-13c1.86-1.48,4.45-3.33,7.42-3.33,5.57,0,8.91,4.82,8.91,10.39,0,6.31-4.83,12.62-11.51,12.62a11.08,11.08,0,0,1-6.68-1.85l-1.48,1.1-1.11-.4a65.9,65.9,0,0,0,.74-8.54V125.29c0-3.33-.74-3.33-2.6-3.7v-.75a37.28,37.28,0,0,0,5.2-2.22,1.32,1.32,0,0,1,1.11-.37c.37,0,.37.37.37.74v17.07Z" transform="translate(0.11 0)"/><path class="cls-3" d="M108.94,71.47A26.29,26.29,0,0,0,126,96.34V46.57A26.35,26.35,0,0,0,108.94,71.47Z" transform="translate(0.11 0)"/><path class="cls-4" d="M144.94,46.57V96.32A26.65,26.65,0,0,0,162,71.45,26.32,26.32,0,0,0,144.94,46.57Z" transform="translate(0.11 0)"/><path class="cls-5" d="M144.94,96.35A26.65,26.65,0,0,0,162,71.48" transform="translate(0.11 0)"/><path class="cls-5" d="M157.19,25.46H135.66c-25.61,0-46.39,18.92-46.39,46.39,0,25.24,20.78,45.65,46.39,45.65h21.53c25.23,0,48.24-20.41,48.24-45.65C205.1,44.38,182.1,25.46,157.19,25.46Zm-21.53,88A42.13,42.13,0,1,1,178,71.51h0a42.44,42.44,0,0,1-42.31,41.9Z" transform="translate(0.11 0)"/><path class="cls-4" d="M196.9,64.43c0-11.89-4.83-22.64-13-31.18a51,51,0,0,0-26.72-7.79H135.66c-25.61,0-46.39,18.93-46.39,46.39a45.92,45.92,0,0,0,11.5,30.07,62.14,62.14,0,0,0,26,10.39,43.07,43.07,0,1,1,10,.74h1.86C170.55,113.41,196.9,91.51,196.9,64.43Z" transform="translate(0.11 0)"/><path class="cls-3" d="M135.29,25.46c-25.61,0-46.4,18.92-46.4,46.39A43.6,43.6,0,0,0,100,101.16l1.11,1.12a65.5,65.5,0,0,0,25.61,10.39,43.07,43.07,0,1,1,10,.74h1.86a27.18,27.18,0,0,0,5.56-.37c24.5-5.94,40.09-30.8,35.64-57.16A51.61,51.61,0,0,0,163.1,25.82a27.9,27.9,0,0,0-5.56-.36Z" transform="translate(0.11 0)"/><path class="cls-2" d="M32.91,186h.37c.95,0,1.95-.13,1.95-1.51V170.62c0-1.37-1-1.51-1.95-1.51h-.37v-.79c1,0,2.61.11,3.91.11s2.9-.11,4.15-.11v.79h-.38c-.94,0-2,.14-2,1.51v13.84c0,1.38,1,1.51,2,1.51H41v.79c-1.27,0-2.86-.1-4.18-.1s-2.85.1-3.88.1Z" transform="translate(0.11 0)"/><path class="cls-2" d="M40.85,186.65v-.56H40.6c-1,0-2.07-.17-2.08-1.63V170.62c0-1.46,1.13-1.62,2.08-1.62h.25v-.56c-1.22,0-2.75.1-4,.1s-2.77-.1-3.8-.1V169h.26c.94,0,2.06.16,2.06,1.62v13.84c0,1.46-1.12,1.63-2.06,1.63H33v.56c1,0,2.52-.11,3.77-.11s2.82.1,4.06.11m.12.22c-1.28,0-2.86-.1-4.18-.1s-2.84.1-3.88.1h-.12v-1h.49c1,0,1.83-.1,1.84-1.39V170.62c0-1.29-.88-1.37-1.84-1.39h-.49v-1h.12c1,0,2.62.1,3.91.1s2.9-.1,4.15-.1h.11v1H40.6c-1,0-1.84.1-1.84,1.39v13.84c0,1.29.88,1.37,1.84,1.39h.48v1Z" transform="translate(0.11 0)"/><path class="cls-2" d="M59.12,181.56l.05-.06v-9.9a2.18,2.18,0,0,0-2.3-2.49h-.58v-.79c1.24,0,2.46.11,3.7.11,1.08,0,2.17-.11,3.25-.11v.79h-.4c-1.11,0-2.35.21-2.35,3.36v12a17.62,17.62,0,0,0,.15,2.67h-1L46,172v10.89c0,2.3.44,3.09,2.48,3.09H49v.79c-1.14,0-2.27-.1-3.41-.1s-2.4.1-3.59.1V186h.37c1.82,0,2.38-1.24,2.38-3.35V171.49a2.38,2.38,0,0,0-2.41-2.38H42v-.79c1,0,2,.11,3,.11.8,0,1.56-.11,2.36-.11Z" transform="translate(0.11 0)"/><path class="cls-2" d="M59.05,181.5h0Zm.07.06.08-.08Zm.52,5.48h.87a19.09,19.09,0,0,1-.13-2.55v-12c0-3.17,1.32-3.47,2.46-3.47h.28v-.56c-1,0-2.08.1-3.13.1-1.21,0-2.39-.1-3.58-.1V169h.47a2.31,2.31,0,0,1,2.41,2.6l0,10,0,0-.09.08L47.36,168.44c-.79,0-1.55.1-2.36.1-1,0-2-.1-2.92-.1V169h.23a2.49,2.49,0,0,1,2.52,2.49v11.13c0,2.11-.59,3.46-2.49,3.47h-.26v.57c1.15,0,2.33-.11,3.48-.11s2.2.1,3.29.11v-.56h-.33c-2.08,0-2.6-.91-2.6-3.21V171.7Zm1,.23-1.08,0L46.15,172.29v10.59c0,2.3.38,3,2.37,3h.56v1H49c-1.15,0-2.28-.1-3.41-.1s-2.4.1-3.59.1h-.12v-1h.49c1.74,0,2.24-1.13,2.26-3.23V171.49a2.25,2.25,0,0,0-2.29-2.26h-.46v-1H42c1,0,2,.1,3,.1.79,0,1.55-.1,2.44-.06l11.61,13.07V171.6c0-2.1-1.41-2.35-2.18-2.37h-.7v-1h.12c1.25,0,2.46.1,3.7.1,1.07,0,2.15-.1,3.25-.1h.11v1h-.51c-1.09,0-2.21.12-2.24,3.24v12a17.16,17.16,0,0,0,.16,2.65l0,.13Z" transform="translate(0.11 0)"/><path class="cls-2" d="M67.19,169.64c-2,0-2.06.48-2.45,2.41h-.8c.11-.74.24-1.48.32-2.25a15.15,15.15,0,0,0,.16-2.24h.63c.22.79.88.76,1.59.76H80.27c.72,0,1.38,0,1.43-.82l.63.11c-.1.71-.21,1.42-.29,2.14s-.05,1.42-.05,2.14l-.79.29c-.06-1-.19-2.54-2-2.54H74.91V183.7c0,2,.93,2.27,2.19,2.27h.51v.79c-1,0-2.89-.1-4.31-.1-1.59,0-3.44.1-4.47.1V186h.51c1.45,0,2.19-.13,2.19-2.22V169.64Z" transform="translate(0.11 0)"/><path class="cls-2" d="M77.61,186.87c-1,0-2.89-.1-4.31-.1-1.58,0-3.43.1-4.47.1h-.11v-1h.62c1.45,0,2,0,2.07-2.1v-14H67.19v-.24h4.45v14.23c0,2.12-.86,2.34-2.3,2.34h-.4v.56c1,0,2.83-.11,4.36-.11s3.14.1,4.19.11v-.56H77.1c-1.28,0-2.3-.32-2.3-2.39V169.52h4.44c1.78,0,2,1.52,2.07,2.5l.57-.21c0-.69,0-1.38.05-2.08s.17-1.35.27-2l-.4-.06c-.12.76-.87.81-1.53.8H66.51c-.63,0-1.3,0-1.54-.77h-.44a15.08,15.08,0,0,1-.15,2.14c-.08.73-.2,1.43-.3,2.13h.57c.34-1.85.57-2.44,2.54-2.42v.24c-2,0-1.91.36-2.34,2.31l0,.09h-1l0-.13c.1-.74.24-1.48.32-2.25a14.88,14.88,0,0,0,.16-2.22v-.12h.83l0,.08c.18.67.67.67,1.35.69H80.27c.73,0,1.27,0,1.32-.72v-.12l.11,0,.75.12,0,.12c-.1.71-.21,1.42-.28,2.13s0,1.41,0,2.13V172L82,172l-.94.34v-.15c-.07-1-.18-2.43-1.85-2.43H75V183.7c0,2,.81,2.13,2.07,2.15h.62v1Z" transform="translate(0.11 0)"/><path class="cls-2" d="M83.17,186h.38c1,0,2-.13,2-1.51V170.62c0-1.37-1-1.51-2-1.51h-.38v-.79c1.61,0,4.37.11,6.58.11s5-.11,6.76-.11c0,1.14,0,2.88.06,4l-.8.21c-.12-1.71-.44-3.08-3.22-3.08H88.89v6.91H92c1.59,0,1.94-.89,2.09-2.32h.79c-.05,1-.08,2.06-.08,3.09s0,2,.08,3l-.79.16c-.15-1.58-.23-2.61-2.06-2.61H88.89v6.15c0,1.72,1.52,1.72,3.21,1.72,3.18,0,4.57-.21,5.37-3.22l.74.18c-.35,1.4-.66,2.8-.9,4.2-1.69,0-4.73-.1-7.1-.1s-5.53.1-7,.1Z" transform="translate(0.11 0)"/><path class="cls-2" d="M97.21,186.65c.23-1.34.53-2.67.86-4l-.52-.13c-.8,2.95-2.33,3.21-5.45,3.2-1.66,0-3.33,0-3.33-1.84v-6.27h3.28c1.85,0,2,1.1,2.16,2.6l.57-.12c0-1-.07-2-.07-2.92s0-2,.07-3h-.57c-.15,1.38-.58,2.35-2.19,2.33H88.77v-7.15h3.78c2.75,0,3.21,1.4,3.33,3.06l.57-.16c0-.74-.08-1.7-.08-2.58,0-.45,0-.88,0-1.25-1.8,0-4.48.1-6.65.1s-4.84-.1-6.46-.1V169h.26c.94,0,2.06.16,2.07,1.62v13.84c0,1.46-1.13,1.62-2.07,1.63h-.26v.56c1.54,0,4.59-.11,6.91-.11s5.31.1,7,.11m.1.22c-1.7,0-4.74-.1-7.11-.1s-5.52.1-7,.1h-.11v-1h.49c1,0,1.82-.1,1.83-1.39V170.62c0-1.29-.88-1.37-1.83-1.39h-.49v-1h.11c1.62,0,4.37.1,6.58.1s5-.1,6.76-.1h.12v.12c0,.39,0,.86,0,1.36,0,.91,0,1.91.08,2.67v.09l-.09,0-.92.24v-.14c-.16-1.71-.39-3-3.11-3H89v6.69h3c1.53,0,1.8-.8,2-2.22V174h1v.12c0,1-.08,2.06-.08,3.09s0,2,.08,3v.09l-.1,0-.92.18v-.12c-.18-1.62-.2-2.5-2-2.52H89v6c0,1.61,1.39,1.6,3.11,1.61,3.19,0,4.46-.18,5.25-3.14l0-.11.11,0,.85.22,0,.11c-.35,1.4-.66,2.79-.9,4.19l0,.09Z" transform="translate(0.11 0)"/><path class="cls-2" d="M105.15,177.25h1.29c2.65,0,4.07-1,4.07-4.12a3.61,3.61,0,0,0-3.86-3.86,11.91,11.91,0,0,0-1.5.11Zm-3.38-6.13c0-1.93-1.06-2-1.88-2h-.47v-.79c.84,0,2.48.11,4.09.11s2.86-.11,4.26-.11c3.32,0,6.29.9,6.29,4.65,0,2.38-1.59,3.83-3.68,4.65l4.52,6.76a2.93,2.93,0,0,0,2.56,1.59v.79c-.87,0-1.72-.1-2.59-.1s-1.66.1-2.48.1a74.09,74.09,0,0,1-5.5-8.56h-1.74v5.66c0,2,.95,2.11,2.16,2.11h.48v.79c-1.51,0-3-.1-4.54-.1-1.27,0-2.51.1-3.83.1V186h.47c1,0,1.88-.45,1.88-1.43Z" transform="translate(0.11 0)"/><path class="cls-2" d="M106.44,177.14c2.62,0,3.94-.94,4-4a3.5,3.5,0,0,0-3.75-3.75,10.67,10.67,0,0,0-1.38.1v7.66Zm-1.29.22H105v-8.09h.1a12.34,12.34,0,0,1,1.51-.1,3.73,3.73,0,0,1,4,4c0,3.16-1.52,4.23-4.19,4.23Zm0,.73H107l0,.06a83.4,83.4,0,0,0,5.4,8.5c.81,0,1.65-.11,2.48-.11s1.66.1,2.48.11v-.58a3,3,0,0,1-2.54-1.62l-4.6-6.88.13,0c2.07-.82,3.6-2.23,3.6-4.55,0-3.67-2.85-4.52-6.17-4.53-1.39,0-2.66.1-4.26.1s-3.12-.1-4-.1V169h.36c.82,0,2,.14,2,2.12v13.42c0,1.07-1,1.55-2,1.55h-.36v.56c1.27,0,2.48-.11,3.72-.11,1.47,0,3,.1,4.43.11v-.56h-.37c-1.2,0-2.27-.15-2.27-2.24v-5.76Zm12.31,8.78c-.88,0-1.72-.1-2.59-.1s-1.65.1-2.57.06a73.15,73.15,0,0,1-5.47-8.51h-1.56v5.53c0,2,.82,2,2,2h.6v1h-.12c-1.51,0-3.05-.1-4.54-.1-1.26,0-2.51.1-3.83.1H99.3v-1h.59c1,0,1.76-.42,1.76-1.31V171.12c0-1.87-.94-1.86-1.76-1.89H99.3v-1h.12c.85,0,2.48.1,4.09.1s2.85-.1,4.26-.1c3.33,0,6.39.92,6.4,4.76,0,2.38-1.58,3.87-3.61,4.7l4.43,6.65a2.84,2.84,0,0,0,2.49,1.53l.09,0v1Z" transform="translate(0.11 0)"/><path class="cls-2" d="M135.4,181.56l0-.06v-9.9a2.18,2.18,0,0,0-2.29-2.49h-.58v-.79c1.24,0,2.45.11,3.7.11,1.09,0,2.16-.11,3.25-.11v.79h-.4c-1.11,0-2.35.21-2.35,3.36v12a17.58,17.58,0,0,0,.16,2.67h-1L122.32,172v10.89c0,2.3.45,3.09,2.48,3.09h.45v.79c-1.13,0-2.27-.1-3.4-.1s-2.41.1-3.6.1V186h.37c1.82,0,2.38-1.24,2.38-3.35V171.49a2.37,2.37,0,0,0-2.4-2.38h-.35v-.79c1,0,2,.11,3,.11.79,0,1.56-.11,2.35-.11Z" transform="translate(0.11 0)"/><path class="cls-2" d="M135.33,181.5h0l0,0Zm.07.06.08-.08Zm.53,5.48h.86a19,19,0,0,1-.14-2.55v-12c0-3.17,1.34-3.47,2.47-3.47h.28v-.56c-1,0-2.08.1-3.13.1-1.21,0-2.39-.1-3.59-.1V169h.47a2.31,2.31,0,0,1,2.41,2.6l0,10-.05,0-.08.08-11.76-13.28c-.78,0-1.55.1-2.35.1-1,0-2-.1-2.93-.1V169h.24a2.48,2.48,0,0,1,2.51,2.49v11.12c0,2.12-.6,3.47-2.49,3.48h-.26v.56c1.15,0,2.32-.11,3.48-.11s2.21.1,3.3.11v-.56h-.34c-2.07,0-2.59-.91-2.6-3.21V171.7Zm1,.23-1.09,0-13.41-14.94v10.59c0,2.3.38,3,2.37,3h.56v1h-.11c-1.14,0-2.28-.1-3.41-.1s-2.4.1-3.59.1h-.12v-1h.49c1.74,0,2.24-1.13,2.26-3.24V171.49a2.25,2.25,0,0,0-2.28-2.26h-.47v-1h.12c1,0,2,.1,3,.1.78,0,1.54-.1,2.43-.07l11.61,13.08V171.6c0-2.1-1.41-2.36-2.18-2.37h-.7v-1h.12c1.25,0,2.46.1,3.7.1,1.08,0,2.16-.1,3.25-.1h.11v1h-.51c-1.09,0-2.21.12-2.24,3.24v12a17.24,17.24,0,0,0,.16,2.65l0,.13Z" transform="translate(0.11 0)"/><path class="cls-2" d="M147.63,171.28h-.06l-2.45,7.48h4.93ZM143.77,183a10.55,10.55,0,0,0-.59,2.06c0,.8,1.12.93,2,.93h.29v.79c-1.06-.06-2.14-.1-3.2-.1s-1.9,0-2.85.1V186h.16a2.39,2.39,0,0,0,2.29-1.72l4.23-12.12a21.49,21.49,0,0,0,1-3.28,13.54,13.54,0,0,0,2.4-1.14.87.87,0,0,1,.22-.05.17.17,0,0,1,.18.08c.08.21.16.45.24.66L155,182.22c.32.92.63,1.9,1,2.69a1.68,1.68,0,0,0,1.75,1.06h.16v.79c-1.19-.06-2.38-.1-3.64-.1s-2.62,0-4,.1V186h.29c.6,0,1.64-.11,1.64-.77a8.72,8.72,0,0,0-.53-1.9l-1-3.06h-6Z" transform="translate(0.11 0)"/><path class="cls-2" d="M147.51,171.32l.06,0Zm-2.24,7.32h4.63l-2.3-7.08Zm-.31.23,2.52-7.71h.15v.12h0v-.12h.08l2.51,7.71Zm5.39,7.77c1.31,0,2.59-.1,3.86-.1s2.37.05,3.52.1v-.55h0a1.8,1.8,0,0,1-1.85-1.13c-.34-.8-.67-1.78-1-2.71L150,168.44c-.08-.21-.16-.45-.23-.64,0,0,0,0,0,0h0a.56.56,0,0,0-.15,0,9.66,9.66,0,0,1-2.35,1.05,21.51,21.51,0,0,1-1,3.3L142,184.29a2.51,2.51,0,0,1-2.4,1.8h0v.55c.91,0,1.82-.1,2.74-.1s2.07.05,3.08.1v-.55h-.17c-.87,0-2.07-.11-2.1-1.05a10.48,10.48,0,0,1,.59-2.09l.11,0-.11,0,.87-2.82h6.16l1.05,3.13a8,8,0,0,1,.54,1.94c0,.81-1.15.87-1.75.89h-.18Zm7.49.23c-1.18-.05-2.38-.1-3.63-.1s-2.62,0-4,.1h-.13v-1h.41c.61,0,1.52-.14,1.52-.65a8.22,8.22,0,0,0-.52-1.86l-1-3H144.7l-.82,2.67a11.2,11.2,0,0,0-.59,2c0,.65,1,.81,1.88.81h.4v1h-.12c-1-.05-2.13-.1-3.19-.1s-1.9,0-2.84.1h-.13v-1h.28a2.25,2.25,0,0,0,2.18-1.64L146,172.09a32.65,32.65,0,0,0,1.05-3.35,13.55,13.55,0,0,0,2.4-1.13.61.61,0,0,1,.25-.06.31.31,0,0,1,.3.15c.07.21.16.45.24.66l4.86,13.82c.31.93.63,1.9,1,2.68a1.54,1.54,0,0,0,1.64,1H158v1Z" transform="translate(0.11 0)"/><path class="cls-2" d="M159,169.64c-2,0-2.06.48-2.46,2.41h-.79c.1-.74.24-1.48.32-2.25a16.63,16.63,0,0,0,.15-2.24h.64c.21.79.87.76,1.58.76h13.64c.71,0,1.37,0,1.42-.82l.63.11c-.1.71-.2,1.42-.28,2.14s-.06,1.42-.06,2.14l-.79.29c0-1-.18-2.54-1.95-2.54h-4.34V183.7c0,2,.93,2.27,2.2,2.27h.5v.79c-1,0-2.88-.1-4.31-.1-1.58,0-3.43.1-4.46.1V186h.5c1.46,0,2.19-.13,2.19-2.22V169.64Z" transform="translate(0.11 0)"/><path class="cls-2" d="M169.42,186.87c-1,0-2.89-.1-4.31-.1-1.58,0-3.43.1-4.46.1h-.12v-1h.62c1.46,0,2,0,2.08-2.1v-14H159v-.24h4.45v14.23c0,2.12-.86,2.33-2.31,2.34h-.39v.56c1.05,0,2.82-.11,4.35-.11,1.38,0,3.15.1,4.19.11v-.56h-.39c-1.27,0-2.3-.31-2.3-2.39V169.52h4.45c1.77,0,2,1.52,2.05,2.5l.58-.21c0-.69,0-1.38.05-2.07s.18-1.36.27-2l-.4-.07c-.12.76-.86.81-1.52.8H158.32c-.62,0-1.3,0-1.54-.77h-.43a15.07,15.07,0,0,1-.16,2.14c-.07.73-.2,1.43-.3,2.13h.57c.34-1.85.57-2.45,2.55-2.42v.24c-2,0-1.91.36-2.35,2.31v.09h-1V172c.11-.74.24-1.48.32-2.24a15.11,15.11,0,0,0,.16-2.23v-.12H157l0,.08c.18.67.66.67,1.34.69h13.77c.73,0,1.26,0,1.31-.72v-.12l.13,0,.75.12,0,.12c-.11.71-.21,1.42-.29,2.13s-.05,1.41-.05,2.13V172l-.08,0-.94.34v-.15c-.07-1-.17-2.43-1.84-2.43h-4.22V183.7c0,2,.82,2.13,2.07,2.15h.62v1Z" transform="translate(0.11 0)"/><path class="cls-2" d="M175.12,186h.37c.95,0,1.95-.13,1.95-1.51V170.62c0-1.37-1-1.51-1.95-1.51h-.37v-.79c1,0,2.61.11,3.91.11s2.91-.11,4.15-.11v.79h-.37c-1,0-2,.14-2,1.51v13.84c0,1.38,1,1.51,2,1.51h.37v.79c-1.27,0-2.86-.1-4.17-.1s-2.86.1-3.89.1Z" transform="translate(0.11 0)"/><path class="cls-2" d="M183.06,186.65v-.56h-.25c-.95,0-2.07-.17-2.07-1.63V170.62c0-1.46,1.12-1.62,2.07-1.62h.25v-.56c-1.22,0-2.75.1-4,.1s-2.77-.1-3.79-.1V169h.25c.94,0,2.07.16,2.07,1.62v13.84c0,1.46-1.13,1.63-2.07,1.63h-.25v.56c1,0,2.51-.11,3.77-.11s2.8.1,4.05.11m.12.22c-1.28,0-2.86-.1-4.17-.1s-2.86.1-3.89.1H175v-1h.48c.95,0,1.83-.1,1.84-1.39V170.62c0-1.29-.89-1.37-1.84-1.39H175v-1h.11c1,0,2.62.1,3.91.1s2.9-.1,4.15-.1h.11v1h-.48c-1,0-1.83.1-1.84,1.39v13.84c0,1.29.87,1.38,1.84,1.39h.48v1Z" transform="translate(0.11 0)"/><path class="cls-2" d="M194.11,186c5.13,0,6-4.52,6-8.38s-2.08-8.53-6.47-8.53c-4.62,0-6,4.12-6,7.66,0,4.73,2.17,9.25,6.44,9.25m-.4-18.07c5.64,0,10.13,3.49,10.13,9.11a9.69,9.69,0,0,1-10,10.12c-5.6,0-9.88-3.81-9.88-9.49a9.6,9.6,0,0,1,9.74-9.74" transform="translate(0.11 0)"/><path class="cls-2" d="M187.55,176.75c0-3.56,1.4-7.78,6.11-7.78,4.49,0,6.58,4.77,6.59,8.65s-.91,8.48-6.14,8.48v-.22c5,0,5.9-4.4,5.91-8.26s-2.06-8.41-6.36-8.42c-4.53,0-5.87,4-5.88,7.55,0,4.7,2.15,9.12,6.33,9.13v.22c-4.38,0-6.55-4.6-6.56-9.35m-3.7.92a9.74,9.74,0,0,1,9.86-9.86V168a9.49,9.49,0,0,0-9.63,9.63c0,5.62,4.22,9.37,9.77,9.37a9.57,9.57,0,0,0,9.87-10c0-5.56-4.42-9-10-9v-.23c5.68,0,10.23,3.53,10.24,9.23a9.82,9.82,0,0,1-10.1,10.23c-5.65,0-10-3.85-10-9.6" transform="translate(0.11 0)"/><path class="cls-2" d="M221.64,181.56l.05-.06v-9.9a2.18,2.18,0,0,0-2.3-2.49h-.58v-.79c1.24,0,2.46.11,3.7.11s2.17-.11,3.25-.11v.79h-.4c-1.1,0-2.35.21-2.35,3.36v12a17.58,17.58,0,0,0,.16,2.67h-1L208.56,172v10.89c0,2.3.45,3.09,2.48,3.09h.45v.79c-1.13,0-2.27-.1-3.4-.1s-2.41.1-3.6.1V186h.37c1.83,0,2.38-1.24,2.38-3.35V171.49a2.37,2.37,0,0,0-2.41-2.38h-.34v-.79c1,0,2,.11,3,.11.79,0,1.55-.11,2.35-.11Z" transform="translate(0.11 0)"/><path class="cls-2" d="M221.58,181.5h0l0,0Zm.06.06.08-.08Zm.53,5.48H223a19.09,19.09,0,0,1-.13-2.55v-12c0-3.18,1.33-3.47,2.46-3.47h.29v-.56c-1.05,0-2.09.1-3.14.1-1.21,0-2.39-.1-3.58-.1V169h.46a2.3,2.3,0,0,1,2.41,2.6l0,10-.05,0-.08.08-11.76-13.28c-.78,0-1.55.1-2.35.1-1,0-2-.1-2.93-.1V169h.23a2.48,2.48,0,0,1,2.52,2.49v11.13c0,2.11-.59,3.46-2.49,3.47h-.26v.56c1.15,0,2.33-.11,3.49-.11s2.19.1,3.29.11v-.56H211c-2.08,0-2.6-.91-2.6-3.21V171.7Zm1,.23-1.09,0-13.41-14.94v10.59c0,2.3.38,3,2.37,3h.57v1h-.12c-1.14,0-2.27-.1-3.4-.1s-2.4.1-3.6.1h-.11v-1h.48c1.74,0,2.24-1.13,2.27-3.23V171.49a2.26,2.26,0,0,0-2.3-2.26h-.45v-1h.11c1,0,2,.1,3,.1.78,0,1.54-.1,2.44-.06l11.61,13.07V171.6c0-2.1-1.42-2.35-2.19-2.37h-.7v-1h.12c1.25,0,2.46.1,3.7.1,1.08,0,2.15-.1,3.25-.1h.11v1h-.51c-1.09,0-2.21.13-2.23,3.24v12a17.2,17.2,0,0,0,.15,2.65l0,.13Z" transform="translate(0.11 0)"/><path class="cls-2" d="M233.87,171.28h-.05l-2.47,7.48h5ZM230,183a11.11,11.11,0,0,0-.58,2.06c0,.8,1.11.93,2,.93h.29v.79c-1.06-.06-2.14-.1-3.2-.1s-1.9,0-2.85.1V186h.15a2.39,2.39,0,0,0,2.3-1.72l4.24-12.12a21.43,21.43,0,0,0,1-3.28,13.67,13.67,0,0,0,2.41-1.14.72.72,0,0,1,.21-.05c.08,0,.13,0,.18.08l.24.66,4.86,13.82c.31.92.63,1.9,1,2.69a1.67,1.67,0,0,0,1.74,1.06h.16v.79c-1.19-.06-2.38-.1-3.65-.1s-2.61,0-4,.1V186h.29c.61,0,1.64-.11,1.64-.77a8.16,8.16,0,0,0-.53-1.9l-1-3.06h-6Z" transform="translate(0.11 0)"/><path class="cls-2" d="M233.76,171.32l.05,0Zm-2.25,7.32h4.63l-2.3-7.07Zm-.32.23,2.54-7.71h.14v.12h0v-.12H234l2.5,7.71Zm5.4,7.77c1.31,0,2.6-.1,3.85-.1s2.38.05,3.54.1v-.55h0a1.81,1.81,0,0,1-1.85-1.13c-.35-.8-.66-1.78-1-2.7l-4.86-13.82c-.08-.21-.16-.45-.22-.63s0,0,0,0h0a.42.42,0,0,0-.15,0,10.34,10.34,0,0,1-2.36,1.05,21.85,21.85,0,0,1-1,3.3l-4.23,12.13a2.52,2.52,0,0,1-2.41,1.8h0v.55c.9,0,1.81-.1,2.73-.1s2.07.05,3.08.1v-.55h-.17c-.86,0-2.07-.11-2.1-1.05a11.22,11.22,0,0,1,.59-2.09l.11,0-.11,0,.87-2.82h6.16l1.06,3.13a8.34,8.34,0,0,1,.53,1.94c0,.81-1.15.87-1.75.89h-.18Zm7.49.23c-1.19,0-2.38-.1-3.64-.1s-2.61.06-3.95.1h-.12v-1h.4c.61,0,1.52-.14,1.53-.65a9,9,0,0,0-.53-1.86l-1-3h-5.84l-.81,2.67a11,11,0,0,0-.58,2c0,.65,1,.81,1.87.81h.4v1h-.12c-1.05,0-2.14-.1-3.19-.1s-1.89.06-2.85.1h-.11v-1h.26a2.29,2.29,0,0,0,2.2-1.64l4.23-12.12c.33-1,.81-2.3,1-3.35a14.82,14.82,0,0,0,2.41-1.13.57.57,0,0,1,.25-.06.3.3,0,0,1,.29.15c.08.21.15.45.24.66l4.86,13.82c.32.93.63,1.9,1,2.69a1.55,1.55,0,0,0,1.64,1h.27v1Z" transform="translate(0.11 0)"/><path class="cls-2" d="M250.75,184.17c0,1.06.73,1.38,1.58,1.49a20.57,20.57,0,0,0,3.49-.06,3.71,3.71,0,0,0,2.53-1.43,6,6,0,0,0,.82-1.9h.77c-.29,1.51-.66,3-1,4.49-2.32,0-4.65-.1-7-.1s-4.65.1-7,.1V186h.37c1,0,2-.13,2-1.77V170.62c0-1.37-1-1.51-2-1.51H245v-.79c1.4,0,2.78.11,4.18.11s2.66-.11,4-.11v.79h-.66c-1,0-1.79,0-1.79,1.43Z" transform="translate(0.11 0)"/><path class="cls-2" d="M258.86,186.65c.31-1.44.66-2.84.94-4.27h-.54a6,6,0,0,1-.82,1.86,3.93,3.93,0,0,1-2.61,1.48c-.7.06-1.38.1-2,.1s-1,0-1.49-.06c-.86-.09-1.69-.46-1.69-1.59V170.54c0-1.47.93-1.54,1.92-1.54h.54v-.56c-1.3,0-2.58.1-3.9.1s-2.7-.1-4.05-.1V169h.25c.94,0,2.09.16,2.09,1.62V184.2c0,1.71-1.14,1.89-2.09,1.89h-.25v.56c2.28,0,4.56-.11,6.86-.11s4.59.1,6.87.11m.1.22c-2.33,0-4.66-.1-7-.1s-4.65.1-7,.1h-.11v-1h.48c1,0,1.86-.09,1.87-1.65V170.62c0-1.29-.91-1.37-1.87-1.39h-.48v-1H245c1.4,0,2.78.1,4.17.1s2.66-.1,4-.1h.11v1h-.77c-1,0-1.66,0-1.68,1.31v13.63c0,1,.65,1.25,1.48,1.37.46,0,.95.05,1.46.05a19.55,19.55,0,0,0,2-.1,3.7,3.7,0,0,0,2.46-1.38,5.94,5.94,0,0,0,.8-1.87l0-.08h1l0,.14c-.3,1.51-.66,3-1,4.49l0,.08Z" transform="translate(0.11 0)"/><path class="cls-2" d="M259.17,170.36h.33c.36,0,.52-.27.52-.71s-.25-.6-.54-.6h-.31Zm-.94,1.47v-.14c.34-.05.41,0,.41-.25v-2.06c0-.29,0-.39-.4-.37v-.14h1.43c.49,0,.94.23.94.74a.86.86,0,0,1-.66.83l.46.64a2.88,2.88,0,0,0,.61.66v.09h-.54c-.26,0-.49-.55-1-1.28h-.31v.92c0,.18.06.17.41.22v.14Zm1.38.79a2.27,2.27,0,1,0-2.2-2.26,2.25,2.25,0,0,0,2.2,2.26m0-5.05a2.78,2.78,0,1,1-2.78,2.79,2.74,2.74,0,0,1,2.78-2.79" transform="translate(0.11 0)"/></svg>