<svg id="Capa_1" data-name="Capa 1" xmlns="http://www.w3.org/2000/svg" viewBox="0 0 294.76 212.71"><defs><style>.cls-1{fill:#f3f3f3;stroke:#cbcbca;stroke-miterlimit:10;stroke-width:3px;}.cls-2{fill:#0f549d;}.cls-3{fill:#329947;}.cls-4{fill:#b41f36;}</style></defs><title>jcb</title><path class="cls-1" d="M114.74,131H370a18.24,18.24,0,0,1,18.23,18.25V322.45A18.24,18.24,0,0,1,370,340.69H114.74a18.24,18.24,0,0,1-18.23-18.24V149.22A18.24,18.24,0,0,1,114.74,131Z" transform="translate(-95.01 -129.47)"/><path class="cls-2" d="M165.39,159.12c-16.68,0-29.3,10.58-29.3,28.89v52.91c1.53,6.57,8.24,11.16,15.72,11.16,8.55,0,14.65-6.1,14.65-13.84V211.79h23.19v26.45c0,14.65-18.71,22.38-32.55,22.38a37.08,37.08,0,0,1-21-6.42v58.34h37c13,0,28.07-12.2,28.07-28.07V159.12Z" transform="translate(-95.01 -129.47)"/><path class="cls-3" d="M312.88,159.12c-16.68,0-29.3,10.58-29.3,28.89v23.78h43.17a11.4,11.4,0,1,1,0,22.79c6.92,0,12.21,4.88,12.21,11s-5.29,11-12.21,11H283.58v56h37c13,0,28.08-12.2,28.08-28.07V159.12Z" transform="translate(-95.01 -129.47)"/><path class="cls-3" d="M318.61,224.4a8,8,0,0,0-7.73-7.73H295v15.47h15.87A8,8,0,0,0,318.61,224.4Z" transform="translate(-95.01 -129.47)"/><path class="cls-3" d="M295,251.66h16.28a7.73,7.73,0,0,0,0-15.46H295Z" transform="translate(-95.01 -129.47)"/><path class="cls-4" d="M238.63,159.12c-16.69,0-29.3,10.58-29.3,28.89v29.51a22.28,22.28,0,0,1,14.83-5.72h39.06v8.14c-9.36-2-18.32-3.26-22.79-3.26a17.5,17.5,0,0,0,0,35,120.88,120.88,0,0,0,22.79-2.85v7.73H224.16a22.24,22.24,0,0,1-14.83-5.73v61.72h37c13,0,28.08-12.2,28.08-28.07V159.12Z" transform="translate(-95.01 -129.47)"/></svg>