<svg id="Capa_1" data-name="Capa 1" xmlns="http://www.w3.org/2000/svg" viewBox="0 0 294.76 212.71"><defs><style>.cls-1{fill:#f3f3f3;stroke:#cbcbca;stroke-miterlimit:10;stroke-width:3px;}.cls-2{fill:#ea001b;}.cls-3{fill:#0099df;}.cls-4{fill:#6c6bbd;}.cls-5{fill:#34495e;}</style></defs><title>maestro</title><path class="cls-1" d="M129.35,151.83H384.64a18.25,18.25,0,0,1,18.24,18.25V343.31a18.24,18.24,0,0,1-18.24,18.24H129.35a18.24,18.24,0,0,1-18.23-18.24V170.08A18.24,18.24,0,0,1,129.35,151.83Z" transform="translate(-109.62 -150.33)"/><path class="cls-2" d="M238.55,231.71a47.38,47.38,0,0,1,17.6-36.9,47.48,47.48,0,1,0,0,73.79A47.38,47.38,0,0,1,238.55,231.71Z" transform="translate(-109.62 -150.33)"/><path class="cls-3" d="M286,184.23a47.29,47.29,0,0,0-29.87,10.58,47.49,47.49,0,0,1,0,73.79A47.47,47.47,0,1,0,286,184.23Z" transform="translate(-109.62 -150.33)"/><path class="cls-4" d="M273.74,231.71a47.41,47.41,0,0,0-17.59-36.9,47.47,47.47,0,0,0,0,73.79A47.4,47.4,0,0,0,273.74,231.71Z" transform="translate(-109.62 -150.33)"/><path class="cls-5" d="M183.08,300a11.4,11.4,0,0,0-9.22,5.08,11.37,11.37,0,0,0-9.21-5.08,10.47,10.47,0,0,0-6.52,2.7l-1-1.79a.32.32,0,0,0-.28-.16H151a.31.31,0,0,0-.31.31v27a.31.31,0,0,0,.31.32h7.28a.31.31,0,0,0,.31-.32V312.59c.81-3.09,2.77-4.93,5.26-4.93,3.09,0,5.51,3.08,5.51,7v13.4a.31.31,0,0,0,.31.32h6.79a.31.31,0,0,0,.31-.32V314.25c.12-3.17,2.23-6.59,5.45-6.59s5.51,3.08,5.51,7v13.4a.31.31,0,0,0,.31.32h6.79a.31.31,0,0,0,.31-.32v-13.4C195.15,306.59,189.74,300,183.08,300Z" transform="translate(-109.62 -150.33)"/><path class="cls-5" d="M228.24,300.77h-5.82a.32.32,0,0,0-.31.24l-.49,2.07a13.87,13.87,0,0,0-8.78-3.13,14.61,14.61,0,0,0,0,29.2,13.89,13.89,0,0,0,8.66-3v2a.31.31,0,0,0,.31.31h6.43a.31.31,0,0,0,.31-.31v-27A.31.31,0,0,0,228.24,300.77Zm-14.43,20.8a6.28,6.28,0,0,1-4.61-2,7.54,7.54,0,0,1-1.93-5,7.38,7.38,0,0,1,1.92-5,6.34,6.34,0,0,1,4.62-2,6.13,6.13,0,0,1,4.56,2,7.05,7.05,0,0,1,1.92,5,7.24,7.24,0,0,1-1.92,5A6.16,6.16,0,0,1,213.81,321.57Z" transform="translate(-109.62 -150.33)"/><path class="cls-5" d="M246.66,299.83a14.67,14.67,0,0,0,0,29.32A13.74,13.74,0,0,0,257.39,324a.3.3,0,0,0,.07-.24.3.3,0,0,0-.13-.21l-5.7-3.95a.3.3,0,0,0-.4,0,6.05,6.05,0,0,1-4.26,1.91,5.81,5.81,0,0,1-4.44-2.09,7.36,7.36,0,0,1-1.29-2.11H260.3a.31.31,0,0,0,.31-.25,12.63,12.63,0,0,0,.25-2.63A14.45,14.45,0,0,0,246.66,299.83ZM241.1,312a8.66,8.66,0,0,1,1.43-2.54,5.93,5.93,0,0,1,4.44-2,5.85,5.85,0,0,1,4.37,2,7,7,0,0,1,1.45,2.54Z" transform="translate(-109.62 -150.33)"/><path class="cls-5" d="M277.74,311.75c-.59-.21-1.18-.39-1.74-.57-2.45-.76-3.82-1.25-3.63-2.54a2.06,2.06,0,0,1,2.29-1.94c1.58,0,3.76,1,6.12,2.71a.29.29,0,0,0,.25.06.34.34,0,0,0,.21-.14l3.51-5.7a.31.31,0,0,0-.1-.43c-3.52-2.2-6-3.25-10.59-3.25-5.47,0-9.59,3.67-9.59,8.52,0,5.5,3.83,7.16,8.83,8.76,2.17.7,3.6,1.29,3.6,3,0,1.26-.95,2-2.53,2a9.25,9.25,0,0,1-6.56-3.54.28.28,0,0,0-.23-.11.3.3,0,0,0-.23.1l-4.85,5.07a.3.3,0,0,0,0,.43,17.3,17.3,0,0,0,12.65,5c5.3,0,10-4.1,10-8.77C285.1,316.32,282.41,313.17,277.74,311.75Z" transform="translate(-109.62 -150.33)"/><path class="cls-5" d="M307.58,300.77h-5.75v-9.71a.31.31,0,0,0-.31-.32h-7.7a.31.31,0,0,0-.31.32v9.71h-5.15a.31.31,0,0,0-.31.31v7.33a.32.32,0,0,0,.31.32h5.15v19.36a.31.31,0,0,0,.31.31h7.7a.31.31,0,0,0,.31-.31V308.73h5.75a.31.31,0,0,0,.31-.32v-7.33A.31.31,0,0,0,307.58,300.77Z" transform="translate(-109.62 -150.33)"/><path class="cls-5" d="M332.66,300.85a13.39,13.39,0,0,0-4.53-.77c-3.72,0-6.87,1.24-8.74,3.43l-.91-2.53a.3.3,0,0,0-.29-.21h-5.88a.31.31,0,0,0-.32.31v27a.32.32,0,0,0,.32.32h7.57a.32.32,0,0,0,.32-.32V313.23a6.58,6.58,0,0,1,6.4-5.49,7,7,0,0,1,2.87.64.3.3,0,0,0,.41-.16l3-7a.28.28,0,0,0,0-.25A.3.3,0,0,0,332.66,300.85Z" transform="translate(-109.62 -150.33)"/><path class="cls-5" d="M348.5,300a14.6,14.6,0,1,0,14.8,14.6A14.69,14.69,0,0,0,348.5,300Zm.06,21.68a6,6,0,0,1-4.51-2,7.37,7.37,0,0,1,0-10.05,5.86,5.86,0,0,1,4.49-2.08,6.15,6.15,0,0,1,4.62,2.09,7.26,7.26,0,0,1,1.85,4.93,7.7,7.7,0,0,1-1.85,5.11A6.25,6.25,0,0,1,348.56,321.63Z" transform="translate(-109.62 -150.33)"/></svg>