<svg id="Layer_1" data-name="Layer 1" xmlns="http://www.w3.org/2000/svg" viewBox="0 0 294.76 212.72"><defs><style>.cls-1{fill:#f3f3f3;stroke:#cbcbca;stroke-miterlimit:10;stroke-width:3px;}.cls-2{fill:#231f20;}.cls-3{fill:#f26122;}.cls-4{fill:#ea1d25;}.cls-5{fill:#f69e1e;}</style></defs><title>mastercard</title><path class="cls-1" d="M299,321.29H554.29a18.25,18.25,0,0,1,18.24,18.25V512.77A18.24,18.24,0,0,1,554.29,531H299a18.24,18.24,0,0,1-18.23-18.24V339.54A18.23,18.23,0,0,1,299,321.29Z" transform="translate(-279.27 -319.79)"/><path class="cls-2" d="M368.05,497v-9.49a5.63,5.63,0,0,0-5.23-6,5.77,5.77,0,0,0-.72,0,5.86,5.86,0,0,0-5.32,2.69,5.54,5.54,0,0,0-5-2.69,5,5,0,0,0-4.43,2.25v-1.87h-3.29V497h3.32v-8.32a3.54,3.54,0,0,1,3-4,3,3,0,0,1,.67,0c2.18,0,3.29,1.42,3.29,4v8.41h3.32v-8.38a3.57,3.57,0,0,1,3.07-4,2.66,2.66,0,0,1,.63,0c2.25,0,3.32,1.42,3.32,4v8.41Zm49.14-15.12h-5.41V477.3h-3.32v4.59h-3v3h3.07v7c0,3.51,1.36,5.59,5.25,5.59a7.66,7.66,0,0,0,4.11-1.17l-.95-2.81a6,6,0,0,1-2.91.85c-1.58,0-2.18-1-2.18-2.53V484.9h5.38Zm28.05-.38a4.44,4.44,0,0,0-4,2.22v-1.84H438V497h3.29v-8.48c0-2.49,1.08-3.89,3.16-3.89a5.34,5.34,0,0,1,2.06.38l1-3.16a6.9,6.9,0,0,0-2.34-.41Zm-42.41,1.58a11.44,11.44,0,0,0-6.17-1.58c-3.83,0-6.33,1.84-6.33,4.84,0,2.47,1.84,4,5.22,4.46l1.58.22c1.8.26,2.66.73,2.66,1.58,0,1.18-1.2,1.84-3.45,1.84a8.1,8.1,0,0,1-5-1.58l-1.58,2.56a10.87,10.87,0,0,0,6.55,2c4.36,0,6.89-2.05,6.89-4.93s-2-4-5.28-4.53l-1.58-.22c-1.42-.19-2.56-.47-2.56-1.49s1.07-1.77,2.88-1.77a9.75,9.75,0,0,1,4.74,1.3Zm88.11-1.58a4.44,4.44,0,0,0-4,2.22v-1.84h-3.26V497H487v-8.48c0-2.49,1.08-3.89,3.17-3.89a5.33,5.33,0,0,1,2.05.38l1-3.16a6.9,6.9,0,0,0-2.34-.41Zm-42.39,7.91a7.63,7.63,0,0,0,7.35,7.91h.72a7.88,7.88,0,0,0,5.44-1.81l-1.59-2.65a6.69,6.69,0,0,1-4,1.36,4.86,4.86,0,0,1,0-9.68,6.56,6.56,0,0,1,4,1.36l1.59-2.66a7.92,7.92,0,0,0-5.44-1.8,7.63,7.63,0,0,0-8.06,7.19,5.77,5.77,0,0,0,0,.72Zm30.81,0v-7.53h-3.29v1.84a5.74,5.74,0,0,0-4.75-2.22,7.91,7.91,0,0,0,0,15.82,5.74,5.74,0,0,0,4.75-2.22V497h3.29Zm-12.24,0a4.53,4.53,0,1,1,0,.36C467.11,489.66,467.11,489.54,467.12,489.42Zm-39.7-7.91a7.91,7.91,0,1,0,.22,15.82h0a9.23,9.23,0,0,0,6.28-2.06l-1.58-2.43a7.26,7.26,0,0,1-4.4,1.58,4.19,4.19,0,0,1-4.52-3.7h11.23v-1.27c0-4.74-2.94-7.91-7.18-7.91Zm0,2.94a3.76,3.76,0,0,1,3.83,3.67h-7.91a3.89,3.89,0,0,1,4-3.67Zm82.42,5V475.82h-3.17v7.91a5.73,5.73,0,0,0-4.74-2.22,7.91,7.91,0,0,0,0,15.82,5.73,5.73,0,0,0,4.74-2.22V497h3.17Zm5.49,5.36a1.77,1.77,0,0,1,.6.11,2,2,0,0,1,.49.32,1.67,1.67,0,0,1,.33.47,1.51,1.51,0,0,1,0,1.18,1.67,1.67,0,0,1-.33.47,2,2,0,0,1-.49.32,1.57,1.57,0,0,1-2-.79,1.51,1.51,0,0,1,0-1.18,1.9,1.9,0,0,1,.33-.47,2,2,0,0,1,.49-.32,1.62,1.62,0,0,1,.65-.11Zm0,2.68a1.18,1.18,0,0,0,.45-.1,1.34,1.34,0,0,0,.37-.25,1.17,1.17,0,0,0,0-1.58,1.18,1.18,0,0,0-.37-.26,1.17,1.17,0,0,0-.45-.09,1.18,1.18,0,0,0-.46.09,1.12,1.12,0,0,0-.38.26,1.17,1.17,0,0,0,0,1.58,1.09,1.09,0,0,0,.38.25,1.24,1.24,0,0,0,.5.1Zm.09-1.89a.67.67,0,0,1,.41.13.39.39,0,0,1,.14.33.36.36,0,0,1-.11.29.58.58,0,0,1-.33.14l.46.52h-.36l-.43-.52h-.14V497h-.3v-1.39Zm-.35.27v.38h.35a.31.31,0,0,0,.19,0,.17.17,0,0,0,0-.14.17.17,0,0,0,0-.14.31.31,0,0,0-.19,0Zm-17.4-6.42a4.53,4.53,0,1,1,0,.36C497.66,489.69,497.67,489.57,497.67,489.45Zm-111.07,0v-7.56h-3.29v1.84a5.75,5.75,0,0,0-4.75-2.22,7.91,7.91,0,0,0,0,15.82,5.75,5.75,0,0,0,4.75-2.22V497h3.29Zm-12.24,0a4.23,4.23,0,1,1,0,.39c0-.13,0-.26,0-.39Z" transform="translate(-279.27 -319.79)"/><g id="_Group_" data-name=" Group "><rect class="cls-3" x="122.47" y="46.88" width="49.82" height="89.54"/><path id="_Path_" data-name=" Path " class="cls-4" d="M404.9,411.45a56.85,56.85,0,0,1,21.74-44.78,56.94,56.94,0,1,0,0,89.54A56.83,56.83,0,0,1,404.9,411.45Z" transform="translate(-279.27 -319.79)"/><path class="cls-5" d="M518.77,411.45a56.95,56.95,0,0,1-92.13,44.76,56.94,56.94,0,0,0,0-89.54,56.93,56.93,0,0,1,92.13,44.76Z" transform="translate(-279.27 -319.79)"/><path class="cls-5" d="M513.33,446.72v-1.84h.75v-.38h-1.89v.38H513v1.84Zm3.66,0V444.5h-.57l-.67,1.58-.66-1.58h-.51v2.22H515v-1.66l.62,1.43H516l.61-1.43v1.67Z" transform="translate(-279.27 -319.79)"/></g></svg>