<svg id="Layer_1" data-name="Layer 1" xmlns="http://www.w3.org/2000/svg" viewBox="0 0 294.76 212.71"><defs><style>.cls-1{fill:#f4f4f4;stroke:#ccc;stroke-miterlimit:10;stroke-width:3px;}.cls-2{fill:#0057a6;}</style></defs><title>visa</title><path class="cls-1" d="M186.35,137.83H441.64a18.25,18.25,0,0,1,18.24,18.25V329.31a18.24,18.24,0,0,1-18.24,18.24H186.35a18.24,18.24,0,0,1-18.23-18.24V156.08A18.24,18.24,0,0,1,186.35,137.83Z" transform="translate(-166.62 -136.33)"/><path class="cls-2" d="M290.9,204.91l-12.1,75.25h19.33l12.09-75.25Zm58.3,30.65c-6.76-3.34-10.9-5.59-10.9-9,.09-3.1,3.5-6.28,11.14-6.28a33.61,33.61,0,0,1,14.4,2.79l1.75.78,2.63-15.74A48.67,48.67,0,0,0,350.87,205c-19.09,0-32.53,9.93-32.61,24.12-.16,10.48,9.62,16.29,16.94,19.77,7.48,3.58,10,5.9,10,9.08-.08,4.88-6,7.13-11.61,7.13-7.71,0-11.85-1.16-18.14-3.88l-2.54-1.16-2.7,16.36c4.54,2,12.89,3.8,21.55,3.89,20.29,0,33.49-9.78,33.65-24.9C365.5,247.11,360.34,240.75,349.2,235.56Zm68.57-30.42h-15c-4.6,0-8.1,1.32-10.1,6.05l-28.71,69h20.28l5.59-14.93h22.7l2.89,15h17.89Zm-22.27,45c.39,0,7.78-24.38,7.78-24.38l5.89,24.38ZM262.65,204.91,243.72,256,241.65,246c-3.5-11.63-14.48-24.28-26.73-30.56l17.34,64.69h20.45l30.39-75.17Z" transform="translate(-166.62 -136.33)"/><path class="cls-2" d="M235.28,214.61a12.62,12.62,0,0,0-12.57-9.69h-30l-.31,1.39c23.39,5.77,43,23.52,49.4,40.21Z" transform="translate(-166.62 -136.33)"/></svg>